# xmcd
#
# Track frame offsets:
#	150
#	8253
#	17753
#	24498
#	29127
#	39292
#	47346
#	59742
#	76296
#	83066
#	95159
#	104707
#	118638
#	126169
#	135642
#	142613
#	158007
#	176627
#	183672
#	198638
#
# Disc length: 2740 seconds
#
# Revision: 0
# Processed by: cddbd v1.5.2PL0 Copyright (c) Steve Scherf et al.
# Submitted via: EZCDAudioConverter 7.1.5.1
#
DISCID=080ab214
DTITLE=Art Rosenbaum and Al Murphy - Fiddle and Banjo music from Iowa and anot
DTITLE=her place or two
DYEAR=2003
DGENRE=
TTITLE0=Forty Eight Dogs in the Meat House
TTITLE1=Bonnie Jmes Campbell
TTITLE2=The Drunken Sailor
TTITLE3=Fred Adams
TTITLE4=A Sailor's Life is a Weary Life
TTITLE5=Over the Waterfall
TTITLE6=Jonah
TTITLE7=Brickyard Joe, Boatman and Who's Been a gettin' there
TTITLE8=Sally Ann
TTITLE9=Deadheads and Suckers
TTITLE10=Miss McLoud's Reel
TTITLE11=Boston Burgular
TTITLE12=Steamboat Quickstep
TTITLE13=Beautiful Lights on teh Ocean
TTITLE14=Marching Down Broadway
TTITLE15=Look Up and Down that Long Lonesome Road
TTITLE16=Roll On Buddy
TTITLE17=Callhn
TTITLE18=Edwin in the Lowland
TTITLE19=The Double Shuffle
EXTD=
EXTT0=
EXTT1=
EXTT2=
EXTT3=
EXTT4=
EXTT5=
EXTT6=
EXTT7=
EXTT8=
EXTT9=
EXTT10=
EXTT11=
EXTT12=
EXTT13=
EXTT14=
EXTT15=
EXTT16=
EXTT17=
EXTT18=
EXTT19=
PLAYORDER=
